<mxfile host="app.diagrams.net" modified="2024-03-28T16:53:52.470Z" agent="Mozilla/5.0 (Windows NT 10.0; Win64; x64) AppleWebKit/537.36 (KHTML, like Gecko) Chrome/123.0.0.0 Safari/537.36" etag="EBIahNezUmhnRfYcg9h9" version="24.2.0" type="device">
  <diagram name="PÃ¡gina-1" id="B5cv4SD6Jb71Ni0bBx0s">
    <mxGraphModel dx="530" dy="270" grid="1" gridSize="10" guides="1" tooltips="1" connect="1" arrows="1" fold="1" page="1" pageScale="1" pageWidth="827" pageHeight="1169" math="0" shadow="0">
      <root>
        <mxCell id="0" />
        <mxCell id="1" parent="0" />
        <mxCell id="jXP1ars_tGOnPsge1MBV-5" value="atleta" style="swimlane;fontStyle=1;align=center;verticalAlign=top;childLayout=stackLayout;horizontal=1;startSize=26;horizontalStack=0;resizeParent=1;resizeParentMax=0;resizeLast=0;collapsible=1;marginBottom=0;whiteSpace=wrap;html=1;" vertex="1" parent="1">
          <mxGeometry x="330" y="250" width="160" height="160" as="geometry" />
        </mxCell>
        <mxCell id="jXP1ars_tGOnPsge1MBV-6" value="- nome: String&lt;div&gt;- idade: inteiro&lt;br&gt;&lt;/div&gt;&lt;div&gt;- altura: real&lt;br&gt;&lt;/div&gt;" style="text;strokeColor=none;fillColor=none;align=left;verticalAlign=top;spacingLeft=4;spacingRight=4;overflow=hidden;rotatable=0;points=[[0,0.5],[1,0.5]];portConstraint=eastwest;whiteSpace=wrap;html=1;" vertex="1" parent="jXP1ars_tGOnPsge1MBV-5">
          <mxGeometry y="26" width="160" height="54" as="geometry" />
        </mxCell>
        <mxCell id="jXP1ars_tGOnPsge1MBV-7" value="" style="line;strokeWidth=1;fillColor=none;align=left;verticalAlign=middle;spacingTop=-1;spacingLeft=3;spacingRight=3;rotatable=0;labelPosition=right;points=[];portConstraint=eastwest;strokeColor=inherit;" vertex="1" parent="jXP1ars_tGOnPsge1MBV-5">
          <mxGeometry y="80" width="160" height="8" as="geometry" />
        </mxCell>
        <mxCell id="jXP1ars_tGOnPsge1MBV-8" value="+ imprimir(): String&lt;div&gt;&lt;span style=&quot;background-color: initial;&quot;&gt;+ getNome(): String&lt;/span&gt;&lt;/div&gt;&lt;div&gt;&lt;div&gt;+ getI&lt;span style=&quot;background-color: initial;&quot;&gt;dade(): inteiro&lt;/span&gt;&lt;/div&gt;&lt;div&gt;+ getAltura(): real&lt;/div&gt;&lt;/div&gt;" style="text;strokeColor=none;fillColor=none;align=left;verticalAlign=top;spacingLeft=4;spacingRight=4;overflow=hidden;rotatable=0;points=[[0,0.5],[1,0.5]];portConstraint=eastwest;whiteSpace=wrap;html=1;" vertex="1" parent="jXP1ars_tGOnPsge1MBV-5">
          <mxGeometry y="88" width="160" height="72" as="geometry" />
        </mxCell>
      </root>
    </mxGraphModel>
  </diagram>
</mxfile>
